<svg viewBox="0 0 92 48" fill="none"><title>Bank ID</title><g clip-path="url(#Logo_svg__clip0)"><path d="M42.2 22.64c.299.139.565.32.8.544.203.192.384.437.544.736.17.299.256.672.256 1.12 0 .405-.08.79-.24 1.152-.16.352-.39.661-.688.928-.288.267-.635.48-1.04.64-.395.16-.832.24-1.312.24h-4.56V17.92h4.32c.459 0 .88.075 1.264.224.384.15.71.352.976.608.277.256.49.555.64.896.16.33.24.688.24 1.072 0 .341-.064.635-.192.88a2.405 2.405 0 01-.416.592c-.181.181-.379.33-.592.448zm-3.92-.72h1.76c.32 0 .587-.101.8-.304.213-.213.32-.459.32-.736a.96.96 0 00-.32-.72 1.085 1.085 0 00-.8-.32h-1.76v2.08zm2 4.16c.363 0 .667-.117.912-.352.245-.245.368-.528.368-.848 0-.32-.123-.597-.368-.832a1.239 1.239 0 00-.912-.368h-2v2.4h2zm8.001-5.6c.438 0 .843.075 1.216.224.374.15.694.363.96.64.278.267.49.587.64.96.15.373.224.779.224 1.216V28h-1.6l-.32-.72c-.181.15-.384.283-.608.4a3.815 3.815 0 01-.688.288 3.083 3.083 0 01-.864.112c-.8 0-1.413-.192-1.84-.576-.426-.395-.64-.896-.64-1.504 0-.363.07-.693.208-.992.15-.31.395-.57.736-.784.342-.224.79-.395 1.344-.512.566-.128 1.27-.192 2.112-.192 0-.363-.09-.64-.272-.832a.906.906 0 00-.688-.288.878.878 0 00-.496.128 1.321 1.321 0 00-.288.24.912.912 0 00-.176.352l-2.16-.16a3.3 3.3 0 01.336-.992c.16-.31.368-.57.624-.784.267-.224.587-.395.96-.512.374-.128.8-.192 1.28-.192zm-.48 6c.406 0 .73-.123.976-.368.256-.256.384-.587.384-.992v-.32c-.458 0-.837.027-1.136.08a2.33 2.33 0 00-.688.192.788.788 0 00-.336.304.916.916 0 00-.08.384c0 .203.075.373.224.512.16.139.379.208.656.208zm9.126-5.92c.437 0 .837.075 1.2.224.362.139.672.347.928.624.267.267.47.592.608.976.15.384.224.816.224 1.296V28h-2.16v-3.92c0-.48-.128-.853-.384-1.12-.246-.267-.57-.4-.976-.4-.405 0-.736.133-.992.4-.245.267-.368.64-.368 1.12V28h-2.16v-7.36h1.6l.32.72c.17-.15.368-.283.592-.4.192-.096.421-.187.688-.272.267-.085.56-.128.88-.128zM65.809 28l-2.24-3.28V28h-2.16V17.92h2.16v5.68l2-2.96h2.48l-2.48 3.52L68.29 28h-2.48zm9.284 0h-2.32V17.92h2.32V28zm5.354-2.24c.384 0 .741-.07 1.072-.208.33-.15.618-.347.864-.592.245-.245.437-.539.576-.88a2.95 2.95 0 00.208-1.12c0-.395-.07-.763-.208-1.104a2.593 2.593 0 00-.576-.896 2.669 2.669 0 00-.864-.576 2.575 2.575 0 00-1.072-.224h-1.12v5.6h1.12zm-3.44-7.84h3.44c.704 0 1.36.133 1.968.4a4.963 4.963 0 012.672 2.672c.266.608.4 1.264.4 1.968s-.133 1.36-.4 1.968a4.965 4.965 0 01-1.072 1.6 5.187 5.187 0 01-1.6 1.088 5.02 5.02 0 01-1.968.384h-3.44V17.92z" fill="#09355B"></path><path d="M11.685 20.498a4.788 4.788 0 016.772 0l10.157 5.37a4.788 4.788 0 010 6.771l-10.157 5.37a4.788 4.788 0 01-6.772 0l-10.157-5.37a4.788 4.788 0 010-6.771l10.157-5.37z" fill="#2B7EFB"></path><path opacity="0.5" d="M11.685 13.316a4.788 4.788 0 016.772 0l10.157 5.37a4.788 4.788 0 010 6.77l-10.157 5.37a4.788 4.788 0 01-6.772 0l-10.157-5.37a4.788 4.788 0 010-6.77l10.157-5.37z" fill="#3EFCF0"></path><path d="M11.685 6.134a4.788 4.788 0 016.772 0l10.157 5.369a4.788 4.788 0 010 6.771l-10.157 5.37a4.788 4.788 0 01-6.772 0l-10.157-5.37a4.788 4.788 0 010-6.771l10.157-5.37z" fill="#3EFCF0"></path></g><defs><clipPath id="Logo_svg__clip0"><rect width="92" height="48" rx="8" fill="#fff"></rect></clipPath></defs></svg>